<svg width="2563" height="1443" xmlns="http://www.w3.org/2000/svg" xmlns:xlink="http://www.w3.org/1999/xlink" xml:space="preserve" overflow="hidden"><defs><clipPath id="clip0"><rect x="-826" y="-237" width="2563" height="1443"/></clipPath><clipPath id="clip1"><rect x="-826" y="-237" width="2563" height="1443"/></clipPath></defs><g clip-path="url(#clip0)" transform="translate(826 237)"><g clip-path="url(#clip1)"><path d="M0 0 2561.73 0 2561.73 1443 0 1443 0 0ZM2074.91 348.59C2026.27 348.59 1990.33 378.09 1948.71 412.252L1947.69 413.063 1565.87 719.449C1535.73 743.769 1507.81 788.202 1513.17 832.943 1515.6 853.081 1527.11 890.363 1577.16 913.824 1592.55 920.788 1609.3 924.274 1626.2 924.015 1649.29 923.155 1672.17 919.369 1694.3 912.738 1701.24 910.93 1707.79 909.228 1712.8 908.247L1715.18 907.777C1737.21 902.823 1759.68 900.108 1782.26 899.67 1810.07 899.321 1837.59 905.385 1862.67 917.399 1919.64 944.881 1945.32 994.316 1962.32 1027.04L1963.44 1029.18C1965.79 1033.7 1968.61 1040.27 1971.59 1047.24 1985.27 1079.15 2004.02 1122.85 2047.07 1140.46 2062.93 1147.24 2079.96 1150.87 2097.21 1151.16 2123.41 1151.45 2148.58 1141.05 2166.93 1122.36 2201.32 1087.74 2203.88 1037.54 2203.85 1022.98L2203.85 528.284C2204.45 467.354 2205.03 398.357 2128.56 361.463 2111.89 353.164 2093.54 348.762 2074.91 348.59Z" fill="#0B103D" fill-rule="evenodd" fill-opacity="1" transform="matrix(1.0005 0 0 1 -826 -237)"/></g></g></svg>