<svg width="2564" height="1444" xmlns="http://www.w3.org/2000/svg" xmlns:xlink="http://www.w3.org/1999/xlink" xml:space="preserve" overflow="hidden"><defs><clipPath id="clip0"><rect x="-1060" y="-46" width="2564" height="1444"/></clipPath><clipPath id="clip1"><rect x="-1060" y="-46" width="2564" height="1444"/></clipPath><clipPath id="clip2"><rect x="-1059" y="-46" width="2564" height="1444"/></clipPath></defs><g clip-path="url(#clip0)" transform="translate(1060 46)"><g clip-path="url(#clip1)"><g clip-path="url(#clip2)"><g><g><path d="M0 0 2563 0 2563 1443.72 0 1443.72 0 0ZM2075.94 348.763C2027.28 348.763 1991.31 378.278 1949.68 412.456L1948.66 413.268 1566.64 719.806C1536.49 744.138 1508.56 788.593 1513.92 833.356 1516.36 853.503 1527.86 890.805 1577.94 914.277 1593.34 921.244 1610.1 924.732 1627.01 924.473 1650.11 923.613 1673 919.825 1695.14 913.19 1702.08 911.382 1708.64 909.678 1713.65 908.697L1716.03 908.227C1738.07 903.271 1760.55 900.554 1783.14 900.116 1810.96 899.767 1838.5 905.834 1863.59 917.854 1920.59 945.35 1946.28 994.809 1963.29 1027.54L1964.41 1029.69C1966.76 1034.21 1969.58 1040.79 1972.57 1047.76 1986.25 1079.68 2005.01 1123.41 2048.08 1141.03 2063.95 1147.81 2080.99 1151.44 2098.25 1151.73 2124.46 1152.02 2149.64 1141.61 2168.01 1122.92 2202.41 1088.28 2204.97 1038.06 2204.94 1023.49L2204.94 528.546C2205.54 467.585 2206.13 398.555 2129.62 361.643 2112.93 353.339 2094.58 348.935 2075.94 348.763Z" fill="#FFFFFF" fill-rule="evenodd" fill-opacity="1" transform="matrix(1 0 0 1.0002 -1059 -46)"/></g></g></g></g></g></svg>